<?xml version="1.0" standalone="no"?>
<!DOCTYPE svg PUBLIC "-//W3C//DTD SVG 20010904//EN"
 "http://www.w3.org/TR/2001/REC-SVG-20010904/DTD/svg10.dtd">
<svg version="1.0" xmlns="http://www.w3.org/2000/svg"
 width="512.000000pt" height="512.000000pt" viewBox="0 0 512.000000 512.000000"
 preserveAspectRatio="xMidYMid meet">
<metadata>
Created by potrace 1.11, written by Peter Selinger 2001-2013
</metadata>
<g transform="translate(0.000000,512.000000) scale(0.100000,-0.100000)"
fill="#000000" stroke="none">
<path d="M2025 4970 c2 -4 -209 -6 -468 -5 -260 0 -479 -2 -487 -6 -8 -4 -37
-9 -65 -12 -49 -5 -133 -29 -168 -48 -10 -5 -22 -7 -27 -4 -6 4 -10 2 -10 -3
0 -13 -50 -33 -62 -26 -6 4 -8 2 -5 -4 4 -5 -12 -21 -35 -35 -46 -27 -110 -79
-141 -114 -11 -12 -25 -20 -30 -16 -6 3 -7 1 -3 -5 3 -6 -9 -26 -28 -46 -18
-20 -31 -36 -29 -36 2 0 -4 -12 -15 -27 -18 -27 -72 -136 -72 -147 0 -2 -5
-17 -11 -33 -29 -73 -32 -279 -5 -368 22 -73 95 -197 145 -246 50 -50 138
-112 189 -134 23 -10 42 -23 42 -28 0 -5 -8 -3 -17 4 -16 13 -17 12 -5 -3 11
-14 17 -15 34 -5 16 9 22 9 25 -1 3 -6 9 -10 13 -7 5 3 11 1 14 -4 4 -5 -2 -8
-11 -6 -10 1 -22 0 -28 -4 -12 -7 -43 -13 -72 -14 -13 -1 -23 -5 -23 -9 0 -4
-8 -8 -17 -8 -10 0 -31 -7 -47 -15 -16 -9 -36 -13 -43 -10 -8 2 -12 1 -9 -3 2
-4 -16 -19 -42 -32 -46 -24 -59 -34 -129 -94 -66 -57 -183 -231 -183 -273 0
-7 -4 -13 -8 -13 -4 0 -8 -8 -8 -17 -1 -10 -4 -31 -8 -48 -4 -16 -8 -35 -10
-42 -1 -7 -5 -15 -9 -19 -3 -4 -2 -14 3 -24 5 -10 7 -19 5 -22 -12 -12 -4
-218 11 -298 4 -19 7 -47 8 -62 0 -14 4 -24 8 -22 4 3 10 -8 14 -23 7 -33 39
-102 71 -155 13 -21 22 -38 20 -38 -6 0 49 -63 103 -119 50 -52 151 -131 168
-131 5 0 12 -3 14 -8 8 -18 186 -92 258 -107 70 -14 246 -19 835 -21 391 -1
712 -3 715 -4 3 -1 10 -1 15 0 6 2 83 3 172 4 89 1 165 5 169 9 4 4 8 63 8
130 1 102 4 121 16 119 12 -3 12 0 -2 15 -13 14 -16 39 -14 128 0 61 4 115 8
121 4 6 4 14 0 18 -10 11 -10 156 0 149 5 -3 4 4 -3 15 -11 17 -10 24 2 38 8
10 9 15 3 11 -8 -4 -11 19 -10 78 0 74 2 83 16 72 10 -8 10 -5 -2 9 -21 24
-23 45 -5 63 6 8 7 11 1 8 -13 -8 -14 140 -1 160 4 6 3 14 -1 17 -11 7 -9 116
2 135 6 10 5 12 -2 7 -16 -10 -15 7 1 23 10 11 10 13 0 7 -16 -9 -17 10 -3 19
8 5 7 11 -1 21 -9 11 -8 14 2 14 9 0 10 3 4 8 -5 4 -12 16 -13 26 -3 18 -2 18
15 6 17 -14 17 -14 1 6 -10 11 -18 26 -18 34 0 10 4 10 18 -1 16 -13 16 -13 0
6 -13 15 -14 24 -6 39 6 10 6 16 1 13 -5 -3 -9 10 -9 28 0 35 12 40 46 21 12
-7 13 -7 2 5 -7 8 -17 15 -22 15 -6 1 -14 2 -18 3 -4 0 -8 15 -7 31 0 27 6 35
28 31 4 0 7 4 7 10 0 6 -9 8 -22 4 -22 -7 -22 -6 -6 10 19 21 34 14 40 -20 3
-13 1 -22 -3 -19 -5 3 -9 0 -9 -5 0 -6 4 -11 8 -11 5 0 9 -6 9 -12 2 -18 14
-97 21 -138 4 -19 7 -48 7 -65 0 -16 5 -33 10 -37 6 -5 5 -15 -3 -29 -8 -11
-9 -18 -3 -14 12 7 13 5 16 -40 1 -16 5 -37 9 -46 4 -8 8 -40 9 -70 1 -29 5
-56 9 -59 4 -3 9 -29 11 -56 2 -28 7 -56 11 -62 4 -7 1 -12 -6 -12 -9 0 -10
-3 -2 -8 6 -4 14 -28 17 -55 3 -26 9 -52 12 -57 3 -6 0 -10 -7 -10 -9 0 -9 -3
-2 -8 6 -4 16 -47 23 -97 8 -49 15 -99 17 -110 7 -35 12 -69 19 -125 4 -30 9
-64 12 -75 2 -11 5 -41 7 -67 2 -25 6 -50 9 -55 3 -4 8 -30 11 -58 3 -27 8
-62 11 -77 3 -16 7 -38 9 -50 2 -13 7 -39 11 -58 3 -19 7 -44 9 -55 3 -19 11
-20 257 -20 l254 0 3 28 c2 15 6 27 10 27 4 0 7 15 8 32 3 96 5 112 12 101 5
-7 8 5 8 30 1 56 6 110 12 121 3 5 6 26 7 45 4 68 5 72 16 65 8 -5 8 -1 0 13
-6 11 -8 23 -5 25 2 3 7 27 11 54 5 47 10 73 13 84 2 7 6 45 8 94 2 35 4 37
20 25 15 -13 16 -12 4 2 -12 16 -14 89 -2 89 3 0 5 15 6 33 2 77 16 147 27
140 8 -5 8 -2 0 9 -7 8 -10 17 -8 20 3 3 8 34 11 69 3 35 9 66 15 67 5 2 7 8
4 13 -4 5 -3 36 1 69 6 54 8 59 23 48 14 -11 14 -11 3 3 -15 20 -6 120 12 131
7 5 7 8 1 8 -7 0 -9 15 -7 35 4 31 6 34 26 24 17 -8 17 -7 -4 10 -14 11 -20
21 -13 21 7 0 10 7 7 15 -4 8 -3 23 1 33 7 16 16 78 16 112 1 8 3 22 6 30 3 8
5 27 4 43 -3 28 21 39 35 15 5 -8 2 -9 -9 -5 -10 3 -17 2 -17 -3 0 -6 5 -10
10 -10 6 0 10 -5 10 -11 0 -5 -6 -7 -12 -4 -7 4 -4 -1 6 -9 11 -9 15 -16 9
-16 -7 0 -8 -12 -4 -32 5 -24 3 -37 -8 -46 -9 -8 -10 -11 -3 -7 9 5 12 -10 13
-59 0 -36 1 -79 2 -94 0 -15 -3 -33 -7 -40 -4 -7 -4 -12 1 -12 4 0 8 -322 8
-715 -1 -393 2 -716 5 -716 3 -1 48 -2 100 -3 52 -1 101 -6 109 -10 9 -6 12
-5 7 2 -7 12 53 10 75 -3 7 -5 10 -4 5 3 -7 12 53 10 75 -3 7 -5 10 -4 6 2 -8
13 52 11 73 -2 8 -5 11 -4 7 2 -8 13 52 11 73 -2 8 -5 11 -4 6 3 -7 12 53 10
75 -3 7 -5 10 -4 6 1 -3 6 68 10 186 9 106 0 200 1 210 3 16 4 17 84 17 1496
l0 1493 -690 0 c-380 1 -692 -2 -695 -6 -2 -4 -7 -30 -11 -57 -3 -27 -11 -55
-16 -61 -7 -9 -7 -13 1 -13 7 0 9 -4 6 -10 -3 -5 -8 -27 -10 -47 -10 -78 -14
-108 -15 -108 -1 0 -3 -18 -5 -40 -3 -40 -11 -99 -20 -139 -2 -12 -7 -41 -9
-66 -12 -113 -19 -156 -30 -162 -8 -6 -8 -8 0 -8 8 0 9 -14 2 -47 -5 -27 -11
-68 -13 -93 -2 -25 -6 -58 -9 -75 -3 -16 -8 -50 -11 -75 -7 -50 -12 -81 -14
-93 0 -5 -7 -5 -13 -1 -9 5 -9 2 1 -9 11 -14 11 -20 0 -34 -10 -11 -10 -14 -1
-9 6 4 12 2 12 -3 0 -6 -4 -11 -8 -11 -4 0 -8 -15 -9 -32 -2 -70 -10 -112 -21
-116 -13 -4 -12 24 1 45 4 6 2 15 -4 19 -8 4 -9 3 -5 -4 4 -7 2 -12 -4 -12 -7
0 -10 6 -7 13 2 6 0 24 -4 40 -4 15 -4 25 1 22 5 -3 3 7 -5 22 -7 16 -16 53
-18 83 -3 30 -8 63 -12 73 -4 9 -5 26 -2 37 3 11 2 20 -2 20 -4 0 -7 10 -8 23
-1 12 -3 33 -6 47 -3 14 -8 44 -11 67 -3 22 -8 53 -12 69 -6 21 -4 25 7 19 12
-8 12 -6 1 8 -8 9 -15 26 -16 39 -2 13 -6 38 -11 57 -6 27 -4 32 6 25 11 -6
12 -5 2 7 -7 8 -14 28 -17 44 -9 48 -18 127 -21 166 -1 20 -5 40 -7 45 -6 9
-29 165 -32 209 0 14 -3 25 -6 25 -3 0 -7 10 -8 23 -1 12 -4 31 -6 42 -3 11
-5 25 -5 31 -1 8 -114 11 -400 12 -220 0 -404 3 -410 6 -6 4 -11 4 -11 -1 0
-4 -22 -8 -50 -8 -27 0 -50 4 -50 10 0 5 -4 5 -10 -1 -5 -5 -40 -7 -79 -4 -38
3 -68 3 -66 0z m-775 -552 c0 6 87 7 192 3 16 -1 17 -24 17 -300 0 -306 -3
-334 -37 -292 -10 13 -12 13 -10 1 3 -16 -19 -20 -44 -8 -10 5 -18 5 -18 1 0
-5 -27 -8 -60 -8 -33 0 -60 2 -60 5 0 3 -17 5 -38 5 -20 1 -46 5 -57 9 -11 5
-25 10 -32 12 -6 1 -32 16 -56 33 -51 35 -100 106 -117 170 -13 49 -6 154 10
159 5 2 8 8 5 13 -9 14 24 71 37 63 7 -4 8 -3 4 4 -7 12 47 72 64 72 6 0 10 3
10 8 0 12 59 34 71 26 8 -4 9 -3 5 4 -4 7 -1 12 6 13 23 1 50 7 55 13 3 2 16
1 29 -4 13 -5 24 -6 24 -2z m2598 -608 c0 -16 -4 -30 -9 -30 -5 0 -7 10 -5 23
3 12 5 25 5 30 2 19 8 4 9 -23z m-1073 -40 c-2 -22 0 -40 4 -40 12 0 8 -43 -4
-52 -16 -12 -30 -9 -17 4 16 16 15 31 0 22 -9 -5 -9 -2 1 9 7 9 9 17 4 17 -18
0 -5 76 14 80 1 0 0 -18 -2 -40z m-1676 -492 c11 -11 12 -10 7 0 -6 11 26 13
172 11 l181 -2 -2 -381 -2 -381 -45 -2 c-25 -2 -53 -4 -62 -7 -10 -2 -21 0
-24 5 -3 5 -10 7 -15 3 -21 -13 -295 -2 -324 13 -11 6 -33 17 -50 24 -50 22
-126 83 -121 96 3 7 0 12 -7 10 -7 -1 -11 4 -9 11 1 8 -2 11 -7 7 -11 -6 -34
29 -24 39 3 3 2 6 -4 6 -11 0 -34 47 -41 84 -10 51 -9 142 1 155 10 12 9 13
-1 7 -12 -7 -12 -4 -2 13 6 12 13 31 15 43 7 32 63 114 105 152 42 38 80 61
80 49 0 -4 4 -2 9 6 5 8 40 22 78 32 84 22 76 21 92 7z"/>
<path d="M1433 3855 c0 -8 4 -12 9 -9 5 3 6 10 3 15 -9 13 -12 11 -12 -6z"/>
<path d="M3290 3820 c0 -5 5 -10 11 -10 5 0 7 5 4 10 -3 6 -8 10 -11 10 -2 0
-4 -4 -4 -10z"/>
<path d="M3310 3739 c0 -5 5 -7 10 -4 6 3 10 8 10 11 0 2 -4 4 -10 4 -5 0 -10
-5 -10 -11z"/>
<path d="M3816 3553 c-6 -14 -5 -15 5 -6 7 7 10 15 7 18 -3 3 -9 -2 -12 -12z"/>
<path d="M2783 3522 c10 -10 14 -22 10 -27 -5 -4 -2 -5 5 -1 11 6 10 12 -4 27
-9 10 -19 19 -22 19 -3 0 2 -8 11 -18z"/>
<path d="M660 1858 c-41 -4 -85 -5 -98 -3 -12 2 -20 0 -18 -4 3 -4 -26 -18
-64 -30 -39 -13 -85 -37 -108 -57 -22 -18 -43 -30 -47 -26 -5 4 -5 2 -2 -4 4
-7 0 -17 -9 -25 -21 -17 -52 -89 -59 -135 -7 -50 -13 -88 -15 -94 -4 -16 -1
-132 4 -137 3 -4 0 -13 -7 -21 -9 -13 -9 -14 0 -8 9 5 13 -1 13 -21 0 -15 5
-45 10 -65 6 -21 10 -41 10 -44 -1 -4 2 -10 7 -13 4 -3 17 -22 27 -41 21 -38
90 -110 106 -110 5 0 13 -6 17 -14 4 -7 23 -21 41 -30 18 -9 36 -24 39 -31 3
-8 8 -13 12 -10 11 6 226 -141 224 -153 -2 -6 3 -9 10 -6 7 2 22 -4 32 -16 10
-11 14 -20 9 -20 -5 0 -3 -4 5 -9 8 -5 15 -25 15 -44 1 -19 4 -33 7 -31 4 2 7
-30 7 -71 0 -41 -3 -73 -8 -70 -4 3 -6 -4 -3 -15 3 -12 0 -20 -6 -20 -7 0 -10
-4 -6 -9 5 -8 -34 -38 -42 -33 -2 1 -5 1 -8 1 -36 -9 -63 4 -76 39 -6 14 -10
89 -11 165 l0 139 -29 -4 c-16 -3 -29 -1 -29 3 0 5 -7 6 -15 3 -26 -10 -105
-9 -109 1 -3 7 -5 7 -5 0 -1 -6 -45 -10 -115 -9 l-114 1 3 -116 c1 -64 6 -141
10 -171 7 -58 64 -192 77 -184 4 3 8 1 8 -5 0 -20 129 -99 175 -108 10 -2 22
-7 25 -11 3 -4 14 -8 25 -8 11 -1 43 -6 70 -11 52 -9 235 -10 251 -1 5 3 26 9
48 12 21 4 46 11 55 15 9 5 36 18 61 30 77 37 84 42 140 108 10 12 16 24 13
26 -3 3 2 16 11 29 9 12 16 30 16 40 0 10 6 18 13 18 9 0 8 3 -2 9 -8 5 -10
14 -5 22 4 8 8 54 9 104 0 49 5 96 9 104 6 9 5 12 -1 8 -14 -9 -22 60 -9 73 7
7 6 10 -2 10 -7 0 -12 8 -12 19 0 55 -50 164 -92 202 -10 9 -18 22 -18 28 0 7
-4 10 -9 7 -5 -4 -11 -2 -13 2 -1 5 -22 22 -45 39 -23 17 -39 34 -35 38 4 3 2
5 -3 4 -13 -4 -85 40 -85 52 0 5 -3 8 -7 7 -10 -3 -127 63 -131 74 -2 4 -10 8
-18 8 -8 0 -14 5 -14 10 0 6 -4 9 -10 8 -18 -5 -92 75 -87 94 3 11 1 15 -5 12
-7 -4 -9 10 -7 40 2 25 0 46 -4 46 -5 0 -5 5 -1 12 4 6 8 25 10 42 1 17 12 38
24 48 27 21 78 17 97 -8 16 -23 17 -37 1 -28 -7 4 -4 -3 7 -15 22 -26 23 -30
3 -42 -10 -7 -10 -9 0 -9 9 0 10 -5 2 -19 -7 -14 -7 -22 0 -26 8 -5 8 -11 0
-20 -8 -9 -8 -15 0 -20 6 -4 9 -14 8 -23 -3 -15 16 -17 202 -17 l205 0 2 40
c2 22 5 48 7 58 2 9 1 17 -2 17 -4 0 -8 19 -9 43 -3 87 -6 112 -12 122 -4 6
-13 27 -20 49 -7 21 -29 53 -48 70 -38 33 -133 90 -133 79 0 -4 -5 -2 -12 5
-7 7 -23 12 -36 12 -13 0 -21 3 -19 8 3 4 -5 8 -16 8 -41 3 -162 15 -172 17
-5 2 -44 0 -85 -5z"/>
<path d="M1593 1832 c-6 -4 -54 -7 -107 -6 l-96 0 -1 -25 c-1 -14 -2 -62 -2
-106 -1 -44 -6 -83 -12 -87 -6 -5 -6 -8 0 -8 14 0 14 -270 0 -270 -5 0 -3 -5
5 -10 13 -9 13 -11 0 -20 -8 -5 -10 -10 -5 -10 14 0 15 -80 1 -80 -7 0 -7 -3
-1 -8 14 -10 15 -152 1 -152 -7 0 -7 -3 -1 -8 14 -10 14 -145 1 -154 -7 -5 -7
-8 -1 -8 13 0 13 -110 1 -129 -6 -10 -6 -12 2 -7 16 10 15 -7 0 -23 -7 -8 -8
-11 -2 -8 8 5 11 -17 12 -71 3 -220 39 -304 173 -398 39 -26 154 -70 211 -80
53 -9 248 -10 248 -2 0 5 3 7 8 6 21 -6 95 15 152 44 36 17 69 30 75 29 5 -1
7 0 3 4 -4 4 8 22 25 40 74 75 104 140 113 246 4 41 7 304 7 584 0 357 3 514
11 524 8 11 8 13 -1 8 -8 -5 -11 13 -11 66 0 39 0 81 -1 93 -1 20 -6 20 -156
20 -85 -1 -155 3 -155 7 0 5 -5 5 -11 1 -7 -4 -35 -8 -63 -9 -28 -1 -53 -3
-56 -4 -3 0 -5 -122 -5 -270 1 -186 -2 -268 -10 -263 -6 4 -6 0 1 -9 13 -17
13 -118 0 -138 -6 -9 -5 -12 2 -7 13 8 11 -91 -2 -113 -6 -9 -5 -12 2 -7 13 8
11 -91 -2 -113 -6 -9 -5 -12 2 -7 13 8 11 -91 -2 -113 -6 -9 -5 -12 2 -7 13 8
11 -91 -2 -113 -6 -10 -5 -12 2 -7 8 5 10 -18 6 -86 -2 -51 -9 -95 -15 -99 -6
-3 -11 -10 -12 -15 -1 -5 -5 -8 -9 -7 -5 2 -8 -3 -8 -10 0 -8 -4 -7 -10 3 -5
8 -10 10 -10 3 0 -14 -45 5 -49 21 -3 12 -11 870 -11 1177 l0 186 -110 -1
c-61 -1 -111 2 -113 6 -1 4 -7 4 -14 0z"/>
<path d="M2810 1835 c0 -6 -46 -10 -117 -10 l-118 0 -2 -817 -1 -818 66 0
c244 -1 311 -1 344 -1 l37 1 -2 73 c0 40 2 78 7 85 4 6 3 12 -3 12 -6 0 -6 11
-1 30 5 16 5 30 1 30 -3 0 -7 9 -7 20 0 11 5 20 10 20 6 0 5 5 -1 11 -7 7 -8
21 -3 40 5 16 5 29 1 29 -3 0 -7 9 -7 20 0 11 4 20 9 20 4 0 5 5 1 12 -9 13
-9 81 -1 94 3 6 2 16 -3 23 -4 8 -4 27 0 42 5 16 6 29 2 29 -8 0 -8 53 1 66 3
6 2 16 -3 23 -4 8 -4 27 0 42 5 16 6 29 2 29 -4 0 -7 45 -7 100 0 56 4 100 10
100 5 0 4 5 -2 11 -7 7 -8 21 -3 40 5 16 5 29 1 29 -3 0 -7 9 -7 20 0 11 5 20
10 20 6 0 5 5 -1 11 -7 7 -8 21 -3 40 5 16 5 29 1 29 -3 0 -7 9 -7 20 0 11 4
20 9 20 4 0 5 4 2 10 -8 12 -9 309 -2 317 3 3 2 15 -3 28 -5 14 -5 26 3 34 7
7 7 11 1 11 -6 0 -10 10 -10 22 1 22 -2 22 -94 23 -52 0 -98 5 -102 10 -5 7
-8 7 -8 0z"/>
<path d="M3436 1833 c-3 -3 -76 -6 -161 -6 -107 0 -155 -3 -156 -11 0 -6 -1
-81 -2 -166 l-2 -155 132 0 132 0 0 -649 c0 -356 2 -651 5 -653 6 -6 425 -5
435 1 4 3 7 291 6 640 0 350 3 636 7 636 4 0 5 6 3 13 -4 9 25 12 121 14 69 1
128 3 130 6 8 7 6 308 -1 315 -4 4 -145 8 -315 8 -169 1 -312 4 -317 7 -6 4
-13 4 -17 0z"/>
<path d="M4571 1835 c-1 -6 -71 -10 -191 -9 l-190 0 -1 -65 c0 -36 0 -90 1
-118 1 -38 -2 -53 -12 -53 -10 0 -9 -3 2 -10 13 -8 13 -13 2 -31 -8 -11 -9
-18 -3 -14 15 9 14 -18 -1 -34 -11 -11 -10 -13 0 -7 10 6 12 -119 12 -644 -1
-359 1 -654 3 -657 4 -3 521 -6 724 -4 l42 1 -1 44 c0 24 2 49 6 54 3 6 2 14
-4 17 -6 4 -7 12 -3 18 8 11 9 25 3 52 -1 6 -2 40 -2 77 l-1 67 -67 -1 c-37
-1 -72 2 -79 6 -6 4 -11 4 -11 -1 0 -9 -98 -9 -107 1 -3 3 -13 0 -21 -7 -13
-10 -15 -8 -9 13 6 24 5 24 -8 6 -8 -11 -16 -18 -16 -15 -1 2 -3 69 -4 149 -1
94 2 150 9 159 8 11 8 13 -1 7 -7 -4 -13 -2 -13 3 0 6 6 11 13 11 8 0 7 4 -3
10 -17 11 -17 11 75 14 41 1 73 -2 77 -8 5 -8 8 -8 8 0 0 6 22 10 55 9 l55 -1
0 158 0 158 -135 0 c-74 0 -135 3 -136 8 0 4 -2 18 -5 31 -2 14 1 28 8 33 9 5
9 8 2 8 -8 0 -11 32 -11 104 1 57 5 102 9 100 5 -3 8 -1 8 5 0 5 -5 11 -11 13
-6 2 54 4 135 4 80 0 148 3 151 6 7 6 8 306 1 317 -3 4 -82 7 -176 7 -104 -1
-172 3 -174 9 -3 7 -5 7 -5 0z"/>
</g>
</svg>
